<svg xmlns="http://www.w3.org/2000/svg" viewBox="0 0 129 113"><defs><style>.cls-1{fill:#2f3570}</style></defs><g id="Calque_2" data-name="Calque 2"><g id="HEADER_RF_ONISEP" data-name="HEADER RF/ONISEP"><path d="M0 51.7h8.71v2.58H3.03v3.46h4.83v2.58H3.03v6.32H0V51.7zM11.4 51.7H16c3.29 0 5.32 1.69 5.32 4.46A4.06 4.06 0 0118.89 60l4.69 6.62H20l-4-6h-1.57v6h-3zm3 2.58V58h1.71a1.88 1.88 0 100-3.74zM29.88 51.7h4l5.66 14.94h-3.26l-1.43-3.88h-6l-1.43 3.88h-3.2zm4 8.47l-2-5.61-2 5.61zM41.83 51.7h3.89l6.68 10.69V51.7h3.03v14.94h-3.89L44.86 55.9v10.74h-3.03V51.7zM70.2 62.18L72.59 64a7.46 7.46 0 01-5.13 3l-1.85 3.1h-2.69l1.88-3.14a7.91 7.91 0 117.79-12.66l-2.39 1.86a4.68 4.68 0 00-3.91-2 5.07 5.07 0 000 10.12 4.68 4.68 0 003.91-2.05M78.9 51.7h4l5.66 14.94h-3.25l-1.43-3.88h-6l-1.43 3.88h-3.2zm4 8.47l-2-5.61-2 5.61zM90.85 51.7h3.03v14.94h-3.03zM98.94 62.54a4.33 4.33 0 003.31 1.84 1.68 1.68 0 001.92-1.73c0-2.67-6.83-2.07-6.83-7a4.47 4.47 0 014.78-4.34 6.62 6.62 0 015.23 2.52l-2.22 2a3.91 3.91 0 00-3-1.86 1.59 1.59 0 00-1.73 1.56c0 2.67 6.84 2.05 6.84 7.1 0 2.78-2.22 4.49-5 4.49a6.75 6.75 0 01-5.55-2.5zM110.45 51.7h8.7v2.58h-5.67v3.46h4.82v2.58h-4.82v3.74h5.67v2.58h-8.7V51.7zM0 30h4.58c3.3 0 5.33 1.7 5.33 4.48a4.06 4.06 0 01-2.4 3.87L12.22 45H8.58l-4-6.06H3V45H0zm3 2.59v3.75h1.75a1.88 1.88 0 100-3.75zM14.13 30h8.73v2.59h-5.69v3.47H22v2.59h-4.83v3.75h5.69V45h-8.73zm2.95-1.28l2.42-2.89h3.13l-2.79 2.89zM26.41 30h4.95c3.3 0 5.31 1.7 5.31 4.48s-2 4.45-5.31 4.45h-1.91V45h-3zm3 2.59v3.75h2a1.88 1.88 0 100-3.75zM48 30h3v9.12c0 3.94-2.32 6.3-6.08 6.3s-6.06-2.36-6.06-6.3V30h3v9.38a3 3 0 106.06 0zM54.86 30h4.26c3.13 0 5 1.55 5 4.07a3.51 3.51 0 01-1.58 3 3.81 3.81 0 012.46 3.5c0 2.74-2.11 4.43-5.56 4.43h-4.58zm3 2.59v3.28h1.29c1.15 0 1.82-.58 1.82-1.65a1.6 1.6 0 00-1.82-1.63zm0 5.89v3.92h1.72c1.41 0 2.26-.75 2.26-2s-.85-1.93-2.26-1.93zM68.13 29.99h3.04v12.23h5.7v2.76h-8.74V29.99zM79.54 29.99h3.04v14.99h-3.04zM102.51 46a3.07 3.07 0 001.07-.17v2.57a4 4 0 01-1.58.28 7.1 7.1 0 01-4.69-2l-1.78-1.59a7.94 7.94 0 01-2 .26 7.92 7.92 0 117.94-7.92 8 8 0 01-3 6.25l.9.85a4.63 4.63 0 003.14 1.47m-4.21-8.51a4.84 4.84 0 10-9.66 0 4.84 4.84 0 109.66 0M113.17 30h3v9.12c0 3.94-2.31 6.3-6.08 6.3s-6.06-2.36-6.06-6.3V30h3v9.38a3 3 0 106.06 0zM120 29.99h8.73v2.59h-5.69v3.47h4.84v2.59h-4.84v3.75h5.69v2.59H120V29.99zM127.98 44.98h-.45"/><path class="cls-1" d="M18 17.53a.65.65 0 00.15-.1l-.15.11M25.3 15.09h-.05.05"/><path d="M23 17.64c.21-.21.43-.44.64-.68a12.67 12.67 0 011.26-1.28 3.71 3.71 0 01.41-.33s0-.11.07-.15c-.18.07-.3.23-.49.3 0 0-.07 0 0-.07l.4-.31v-.07a1.52 1.52 0 00-1.21.56h-.19c-.57.19-1 .68-1.55.9v-.07c-.23.07-.45.21-.68.26a3.84 3.84 0 01-.95 0c-.46.05-.91.15-1.37.24a3.12 3.12 0 00-.71.29l-.06.07a.86.86 0 01-.25.22 3.38 3.38 0 00-.63.5h-.06l-.61.58a.21.21 0 01-.12 0l.1-.16a1.63 1.63 0 01.11-.17 1.88 1.88 0 01.16-.23h-.06a4.28 4.28 0 01.64-.48s-.06 0 0 0l.06-.1a.83.83 0 00-.18.13c-.09.08-.16.25-.3.24h-.06v-.13a.16.16 0 010-.07v-.07a.83.83 0 01.26-.23l.43-.24h.06a2.77 2.77 0 00-.6.29h-.06a.09.09 0 01-.1 0c0-.08.15-.12.22-.19s.08 0 .08 0c1.21-.95 2.87-.72 4.27-1.21l.34-.23c.19-.08.34-.26.56-.38a1.67 1.67 0 00.65-.87.1.1 0 000-.07 5.77 5.77 0 01-1.66 1.24 7.22 7.22 0 01-2.5.46c0-.08.12-.08.19-.08s.08-.15.15-.22h.12s0-.08.07-.08H20c-.11-.15-.34.12-.53 0 .08-.07 0-.19.12-.22h.15a.29.29 0 01.07-.16c.57-.34 1.1-.6 1.63-.9-.11 0-.19.11-.3 0 .07 0 0-.11.07-.11.42-.11.76-.34 1.17-.49-.15 0-.26.11-.41 0 .07 0 .11-.11.22-.11v-.12h.08a.14.14 0 01-.08 0c0-.08.16 0 .23-.12s-.11 0-.11 0a.76.76 0 01.49-.23c0-.08-.15 0-.15-.08s0 0 .07 0h-.07c-.08 0 0-.12 0-.15a2.58 2.58 0 00.34-.91h-.08a3 3 0 01-1.54.72h-.19a.82.82 0 01-.65 0c-.15-.07-.22-.19-.37-.3a4.9 4.9 0 00-.95-.46 8.48 8.48 0 00-2.91-.41 6.21 6.21 0 011.32-.38 5.86 5.86 0 011.93-.38 1.61 1.61 0 00-.38 0 6.66 6.66 0 00-1.62.23c-.38.08-.72.23-1.1.3-.22.08-.34.3-.6.27V11a2.19 2.19 0 011.43-.94 7.53 7.53 0 012 .07 10.28 10.28 0 011.43.27c.19 0 .23.3.38.34s.45 0 .68.15v-.23c0-.08.34 0 .49 0 .3-.19-.26-.53-.41-.8a.11.11 0 010-.07 4.72 4.72 0 00.91.75c.19.08.64.19.57 0a6.44 6.44 0 00-.87-1.13v-.22c-.08 0-.08 0-.11-.08V9c-.16-.07-.12-.22-.19-.34s0-.45-.12-.68a4.58 4.58 0 01-.15-.64c-.11-.64-.26-1.21-.34-1.81a3.57 3.57 0 01.76-1.93 3.07 3.07 0 01.99-1.25 3.33 3.33 0 01.7-1.21 3.36 3.36 0 011.18-.76 10.2 10.2 0 011-.38H.08v20h18.54a16.62 16.62 0 012.44-1.26 9.64 9.64 0 001.94-1.1m-5.82-2.71h-.19c.03 0 .31-.19.46-.27s.19-.11.26-.07.19.07.27.15c-.23.22-.53.11-.8.22m-5.78-.83v-.07a12.12 12.12 0 001.21-1.93A5.45 5.45 0 0013.85 11 7.37 7.37 0 0116 9.38a1.41 1.41 0 011 0c-.12.15-.31.11-.46.22a.17.17 0 01-.11 0 .15.15 0 000-.12c-.38.42-.91.61-1.21 1.1s-.38.87-.87 1c-.15 0 0-.11 0-.08a12.91 12.91 0 00-2.91 2.61m3.14-2.49c0 .07-.08.08-.12.15a.28.28 0 01-.15.15h-.07a.47.47 0 01.3-.34v.08m1.75 5.66a.23.23 0 01-.09.11s.08 0 0 .06a.84.84 0 01-.29.2l-.15.13s-.25 0-.18-.05l.27-.26.16-.15.08-.08h.2m-.68-.28c-.15.1-.29.21-.44.29s-.33.17-.49.25h-.06a1.82 1.82 0 00-.38.29h-.06l-.05.05L14 18H13.85a.1.1 0 00-.05 0h-.1l-.13.12a1.58 1.58 0 00-.22.23v-.06l.12-.14.06-.08.12-.16v-.08l.05-.08v-.08-.06c0-.06 0 0 0 0a1.37 1.37 0 01.15-.21l-.14.13s-.12 0-.07-.06l.09-.08a1.26 1.26 0 01.2-.2.48.48 0 00.11-.09l.08-.1c.36-.35 1-.33 1.44-.56.19-.07.42 0 .61 0a.54.54 0 01.34.08c-.34.19-.65.39-1 .59m.77-2.63s.11 0 .15-.08h-.3v-.07l-.6.15c-.27.07-.5.26-.8.34s-.75.49-1.21.64v-.07c0-.07.18-.15.26-.27s0-.07 0-.07a6.48 6.48 0 011.1-1v-.25c.11-.15.3-.23.38-.42a.66.66 0 01.37-.34s-.11 0-.11-.11c-.15 0-.3.08-.45 0a.49.49 0 01.23-.13.12.12 0 01-.08-.06c0-.07.07-.16.19-.18s.34 0 .45-.16c-.26 0-.57.08-.83-.07a2.06 2.06 0 01.97-1.18h.12a.38.38 0 01-.3.38 4.25 4.25 0 01.9.23c0 .07-.11 0-.15 0 .19.12.42 0 .61.19-.12.12-.23 0-.34 0a10.07 10.07 0 013.4 1.36 10.25 10.25 0 01-2.61.8.78.78 0 01-.3 0v.11a.6.6 0 00-.38.08c-.15.07-.38.11-.49 0" fill="#000091"/><path d="M55.25 0H33.73l.21.09.54.29a1.77 1.77 0 01.72.62c.08.11.19.34.11.49s-.11.49-.3.57a1.4 1.4 0 01-.79.07 2.34 2.34 0 01-.45-.07 3.05 3.05 0 011.47 1c0 .07.19.11.34.11s0 .08 0 .11-.15.12-.12.23h.12c.19-.08.15-.45.41-.34a.42.42 0 01.15.57 3.66 3.66 0 01-.45.37.32.32 0 000 .27 1.24 1.24 0 01.19.45c.11.27.15.57.26.83a5.09 5.09 0 01.27 1.71c0 .3-.15.56 0 .86a3.39 3.39 0 00.42.8 5.33 5.33 0 01.41.6c.23.38.64.76.46 1.21-.12.27-.53.23-.8.38s0 .49.08.68c.19.34-.23.57-.49.68.07.11.22.08.26.15s.23.3.11.49-.6.34-.37.68a1 1 0 010 .83.9.9 0 01-.68.57 1.47 1.47 0 01-.72 0 .53.53 0 00-.23-.08A18.05 18.05 0 0032.9 15a2.55 2.55 0 00-.53.15 3.05 3.05 0 00-.46.41l-.08.09-.05.06a4.15 4.15 0 00-.3.43v.06a3.38 3.38 0 00-.29.69 2.26 2.26 0 000 1.79c.05 0 1.24.42 2.08.79a7.21 7.21 0 01.89.45h21.09z" fill="#e1000f"/><path d="M35 7.3c.15 0 .38 0 .38.11-.07.3-.53.38-.76.68h-.11c-.11.08-.07.26-.19.26a.58.58 0 00-.34 0 .65.65 0 00.57.23.16.16 0 01.11.15.12.12 0 00.08 0h.07v.15c-.11.15-.3.08-.45.11a1.61 1.61 0 00.87 0c.23-.07 0-.45.15-.64-.07 0 0-.11-.07-.11a1.22 1.22 0 01.22-.23.28.28 0 00.23-.11c0-.08-.15-.11-.11-.19.22-.15.41-.38.34-.6S35.66 7 35.47 7a1.32 1.32 0 00-.65 0 3 3 0 00-.56.16 2.46 2.46 0 00-.72.37 5 5 0 01.83-.22 2.29 2.29 0 01.64 0" fill="#9c9b9b"/><path d="M.07 112.74v.46M50.26 108.1c.42 0 .78.32.59 1.12l-2 .45c.34-.9.91-1.57 1.36-1.57m1.07 3.13H51a2.34 2.34 0 01-1.53 1c-.53 0-.8-.31-.8-1a4 4 0 01.09-.85l3.13-1c.61-1.45-.12-2.08-1-2.08-1.48 0-3.17 2.47-3.17 4.64 0 1 .47 1.51 1.19 1.51s1.73-.83 2.45-2.19m-.62-4.54l2.21-2.06v-.24h-1.22l-1.36 2.3zM44 108.14h1l-1.65 4.51a.53.53 0 00.45.77 3.84 3.84 0 003-2.2h-.3a4.18 4.18 0 01-1.91 1.16l1.52-4.24h1.55l.19-.65h-1.53l.58-1.63h-.6l-1.07 1.63-1.28.18zm-1.4-.22a.46.46 0 00-.38-.65 2.9 2.9 0 00-2.4 2h.29a2.27 2.27 0 011.26-1l-1.73 4.5a.45.45 0 00.37.66 2.85 2.85 0 002.29-2H42a2.29 2.29 0 01-1.25 1zm.31-2.26a.75.75 0 10-.74-.75.74.74 0 00.74.75m-10 6.92c-.22.51 0 .84.51.84.31 0 .44-.08.57-.41l1.2-3.18a4.26 4.26 0 012.14-1.4c.33 0 .29.27.07.68l-1.84 3.54a.52.52 0 00.45.77 2.92 2.92 0 002.41-2h-.29a2.34 2.34 0 01-1.26 1l1.58-3.2a2.49 2.49 0 00.31-1.09.77.77 0 00-.84-.86c-.78 0-1.57.88-2.51 2v-.83c0-.6-.19-1.13-.73-1.13-.34 0-.67.29-1 .71v.11c.59 0 .85.85.43 1.78zm0-3.93c.22-.74.1-1.38-.46-1.38s-.84.5-1.52 2v-.83c0-.6-.19-1.13-.73-1.13s-1.21 1-1.65 2h.29c.31-.44.59-.7.81-.7s.42.42 0 1.35l-1.22 2.71c-.22.51 0 .84.51.84.31 0 .44-.08.57-.41l1.2-3.18c.34-.42.64-.78 1-1.18zm-6.94-.55c.42 0 .78.32.59 1.12l-2 .45c.34-.9.91-1.57 1.36-1.57m1.08 3.13h-.38a2.34 2.34 0 01-1.53 1c-.53 0-.8-.31-.8-1a4 4 0 01.09-.85l3.13-1c.61-1.45-.12-2.08-1-2.08-1.48 0-3.17 2.47-3.17 4.64 0 1 .47 1.51 1.19 1.51s1.73-.83 2.45-2.19m-7.38-3.09h1l-1.6 4.48a.53.53 0 00.45.77 3.86 3.86 0 003-2.2h-.3a4.18 4.18 0 01-1.91 1.16l1.52-4.24h1.55l.19-.65H22l.58-1.63H22l-1.07 1.63-1.28.18zm-5.71 3.51c0-1.39 1.55-3.28 2.42-3.28a2.19 2.19 0 01.53.07l-.9 2.41c-.52.63-1.33 1.4-1.7 1.4-.21 0-.35-.18-.35-.6m4.79-4.68h-.47l-.54.52h-.11c-2.58 0-4.8 2.9-4.8 5a.85.85 0 00.92.93c.67 0 1.33-1 2.06-2v.36c-.09 1 .22 1.61.77 1.61s1.21-1 1.65-2h-.3c-.3.44-.59.7-.81.7s-.41-.43 0-1.34zm-5.49 1.64c.21-.74.1-1.38-.47-1.38s-.83.5-1.51 2v-.83c0-.6-.2-1.13-.74-1.13s-1.21 1-1.65 2h.29c.31-.44.59-.7.82-.7s.42.42 0 1.35l-1.22 2.71c-.23.51 0 .84.51.84.3 0 .44-.08.56-.41l1.2-3.18c.34-.42.65-.78 1-1.18zm-8.67 4.54l.12-.35c-1.51-.28-1.7-.28-1.1-1.92l.61-1.69h1.66c.75 0 .76.31.65 1.12h.43l1-2.72h-.44c-.37.64-.66 1.12-1.48 1.12H4.33l.87-2.39c.27-.76.43-.91 1.45-.91h.72c1.06 0 1.18.28 1.18 1.34H9l.35-1.85H3.08l-.12.35c1.21.25 1.33.36.76 1.92l-1.36 3.71c-.56 1.55-.8 1.67-2.19 1.92l-.1.35zM35.12 94c.42 0 .78.32.59 1.12l-2 .45c.34-.9.91-1.57 1.36-1.57m1.07 3.13h-.38a2.34 2.34 0 01-1.53 1c-.53 0-.8-.32-.8-1a4 4 0 01.09-.86l3.13-1c.61-1.44-.12-2.08-1-2.08-1.48 0-3.17 2.48-3.17 4.65 0 1 .47 1.5 1.19 1.5s1.73-.82 2.45-2.18m-.62-4.54l2.21-2.06v-.24h-1.12l-1.36 2.3zM28.81 94h1l-1.61 4.51a.52.52 0 00.45.77 3.83 3.83 0 003-2.19h-.3a4 4 0 01-1.91 1.15L31 94h1.5l.19-.64h-1.51l.58-1.63h-.6l-1.07 1.63-1.28.18zm-1.4-.21a.47.47 0 00-.37-.66 2.92 2.92 0 00-2.41 2h.29a2.31 2.31 0 011.26-1l-1.73 4.5a.44.44 0 00.37.65 2.83 2.83 0 002.29-2h-.29a2.29 2.29 0 01-1.25 1zm.32-2.26a.75.75 0 10-.75-.75.75.75 0 00.75.75m-6 6.76L24.86 90l-.1-.12-2 .23v.23l.39.3c.35.27.24.53-.08 1.36l-2.47 6.49a.52.52 0 00.46.77 2.77 2.77 0 002.29-2h-.29a2.59 2.59 0 01-1.37 1m-6-.77c0-1.39 1.55-3.28 2.42-3.28a1.79 1.79 0 01.53.07l-.91 2.41c-.52.63-1.32 1.4-1.69 1.4-.22 0-.35-.18-.35-.6m4.76-4.65h-.48l-.53.52h-.11c-2.58 0-4.81 2.89-4.81 5a.85.85 0 00.93.92c.67 0 1.32-1 2.06-2v.36c-.09 1 .23 1.6.77 1.6s1.21-1 1.65-2h-.29c-.31.44-.59.7-.81.7s-.41-.43 0-1.35zM9 100.38c0-.6.57-1 1.4-1.3a9.58 9.58 0 001.22.46c.86.29 1.19.4 1.19.66 0 .55-.94 1-2.22 1-1.07 0-1.59-.22-1.59-.79m2.34-3.65c-.37 0-.52-.32-.52-.68 0-1 .54-2.49 1.39-2.49.37 0 .52.32.52.68 0 1-.54 2.49-1.39 2.49m2.45 3.1c0-.73-.64-1-1.69-1.3s-1.32-.35-1.32-.65a.93.93 0 01.58-.72 2.64 2.64 0 002.44-2.53 1.54 1.54 0 00-.12-.63h1.22l.2-.64h-2a1.53 1.53 0 00-.81-.23 2.62 2.62 0 00-2.59 2.5 1.45 1.45 0 001.2 1.5c-.73.33-1.14.72-1.14 1.17a.7.7 0 00.31.61c-1.7.5-2.37 1.06-2.37 1.87s1 1.1 2.25 1.1c2.07 0 3.8-1.12 3.8-2M5.86 95c.75 0 .76.3.64 1.12h.43l1-2.73H7.5C7.13 94 6.83 94.5 6 94.5H4.38l.82-2.27c.27-.76.43-.91 1.45-.91h.72c1.06 0 1.18.29 1.18 1.34H9l.35-1.86H3.08l-.08.35c1.21.25 1.33.37.76 1.93l-1.36 3.7c-.56 1.55-.8 1.68-2.19 1.93l-.1.35H7l1.25-2h-.47a4.54 4.54 0 01-3.18 1.49c-1.84 0-1.67-.08-1.06-1.77L4.2 95zm.9-4.74L9 88.73v-.23H7.63l-1.22 1.75zM34.38 79.84c.42 0 .78.31.59 1.12l-1.97.45c.34-.91.9-1.57 1.35-1.57M35.46 83h-.39a2.34 2.34 0 01-1.52 1c-.53 0-.8-.32-.8-1a4 4 0 01.09-.86l3.13-1c.61-1.45-.13-2.08-1-2.08-1.48 0-3.16 2.48-3.16 4.65 0 1 .46 1.5 1.19 1.5s1.72-.83 2.45-2.18m-.62-4.55L37 76.36v-.23h-1.15l-1.35 2.29zm-6.48 1.45h.82l-1.65 4.51a.53.53 0 00.46.77A3.85 3.85 0 0031 83h-.29a4.13 4.13 0 01-1.91 1.15l1.51-4.24h1.55l.19-.64h-1.5l.57-1.63h-.62l-1.08 1.63-1.06.18zm-.82.51c.22-.74.11-1.38-.46-1.38s-.84.51-1.51 2v-.84c0-.6-.2-1.13-.74-1.13s-1.21 1-1.65 2h.29c.31-.45.59-.71.82-.71s.42.42 0 1.35l-1.22 2.71c-.23.51 0 .84.51.84.3 0 .44-.08.56-.41l1.2-3.17c.34-.42.64-.78 1-1.19zm-6.94-.54c.42 0 .78.31.59 1.12l-1.94.45c.33-.91.9-1.57 1.35-1.57m1.09 3.1h-.39a2.34 2.34 0 01-1.52 1c-.54 0-.81-.32-.81-1a4.72 4.72 0 01.09-.86l3.13-1c.62-1.45-.12-2.08-1-2.08C19.72 79 18 81.48 18 83.65c0 1 .46 1.5 1.18 1.5s1.82-.83 2.5-2.15M14 84.23c-.31 0-.75-.28-.75-.53a6.49 6.49 0 01.31-.87l.51-1.34c.54-.65 1.37-1.34 1.83-1.34.28 0 .5.18.5.6 0 1.23-1.16 3.48-2.4 3.48m3.56-4c0-.91-.34-1.25-1-1.25-.79 0-1.54.84-2.29 1.85l1.89-5-.1-.12-2 .22v.24l.39.29c.35.27.23.56-.08 1.37l-2 5.25a6.44 6.44 0 00-.33 1c0 .54.74 1.05 1.41 1.05 1.53 0 4.1-2.77 4.1-4.9m-6.15-.59A.47.47 0 0011 79a2.9 2.9 0 00-2.41 2h.29a2.33 2.33 0 011.26-1l-1.73 4.5a.45.45 0 00.37.66 2.86 2.86 0 002.3-2h-.3a2.31 2.31 0 01-1.25 1zm.32-2.27a.74.74 0 00.74-.74.75.75 0 10-1.49 0 .73.73 0 00.75.74m-4.56-.72H3.05l-.11.35c1.21.25 1.32.36.76 1.92l-1.33 3.73c-.57 1.55-.81 1.67-2.2 1.92l-.1.35h6.26l1.36-2.42h-.47c-.77.85-1.68 1.92-3.07 1.92-1.05 0-1.17-.19-.61-1.77l1.34-3.71c.55-1.55.8-1.67 2.19-1.92z"/></g></g></svg>